<?xml version="1.0" standalone="no"?>
<!DOCTYPE svg PUBLIC "-//W3C//DTD SVG 20010904//EN"
 "http://www.w3.org/TR/2001/REC-SVG-20010904/DTD/svg10.dtd">
<svg version="1.0" xmlns="http://www.w3.org/2000/svg"
 width="512.000000pt" height="512.000000pt" viewBox="0 0 512.000000 512.000000"
 preserveAspectRatio="xMidYMid meet">
<metadata>
Created by potrace 1.11, written by Peter Selinger 2001-2013
</metadata>
<g transform="translate(0.000000,512.000000) scale(0.100000,-0.100000)"
fill="#000000" stroke="none">
<path d="M2504 4010 c-102 -22 -203 -116 -231 -215 -50 -180 -6 -295 162 -430
69 -55 71 -57 78 -87 9 -34 -9 -75 -37 -82 -62 -17 -111 1 -180 64 l-41 38 2
-157 c0 -86 2 -158 2 -161 3 -17 106 -41 192 -45 137 -5 257 63 312 177 31 66
40 107 39 181 -1 116 -42 188 -155 274 -105 81 -124 107 -105 149 28 61 130
45 196 -30 17 -20 32 -30 34 -23 4 10 3 280 -1 299 0 4 -26 16 -57 28 -60 22
-157 31 -210 20z"/>
<path d="M1160 4003 c0 -4 -73 -8 -163 -8 l-162 0 1 -190 c0 -104 4 -219 8
-255 4 -36 8 -78 10 -95 2 -16 5 -34 6 -40 1 -5 2 -14 1 -20 -2 -12 -40 80
-47 114 -3 14 -8 29 -12 35 -3 6 -7 16 -9 21 -1 6 -13 42 -28 80 -14 39 -49
133 -76 211 l-51 141 -134 0 c-74 0 -134 -3 -135 -6 -1 -3 -2 -239 -3 -524
l-1 -517 138 0 138 0 -2 213 c-1 116 -6 248 -10 292 -4 44 -7 81 -5 82 1 2 13
-28 25 -65 13 -37 27 -76 31 -87 5 -11 16 -40 24 -65 8 -25 40 -117 70 -204
31 -88 56 -161 56 -163 0 -2 60 -3 134 -3 98 0 135 3 138 13 2 6 4 231 4 500
-1 268 1 487 5 487 3 0 16 -46 28 -102 12 -57 24 -110 26 -118 5 -19 34 -147
41 -179 3 -12 12 -53 20 -90 9 -36 17 -73 19 -81 2 -8 13 -55 25 -105 12 -49
23 -99 25 -110 3 -11 14 -64 26 -117 l22 -98 146 0 146 0 40 148 c21 81 40
152 42 157 1 6 7 26 12 45 11 39 79 288 116 425 33 122 64 227 67 231 2 1 3
-223 3 -499 l0 -502 143 -3 c130 -2 142 -1 143 15 3 113 0 1014 -5 1021 -3 5
-106 8 -241 8 -129 -1 -235 3 -235 7 0 5 -5 5 -12 1 -7 -4 -32 -8 -57 -8 -39
-1 -44 -4 -48 -26 -2 -14 -5 -38 -8 -55 -3 -16 -8 -47 -11 -68 -8 -49 -12 -71
-14 -74 -4 -5 -6 -15 -14 -73 -9 -60 -10 -64 -22 -130 -5 -25 -9 -49 -9 -55
-14 -120 -18 -172 -16 -180 1 -5 -1 -6 -5 -2 -5 4 -9 18 -10 30 -5 61 -16 154
-23 196 -5 25 -9 53 -9 61 0 8 -3 26 -5 40 -6 28 -27 156 -32 192 -2 13 -6 43
-10 68 -4 25 -7 51 -8 58 0 13 -5 14 -62 16 -22 1 -46 5 -52 9 -7 5 -13 5 -13
0 0 -10 -91 -10 -108 1 -7 4 -12 4 -12 -1z"/>
<path d="M2890 4001 l-35 -6 0 -522 -1 -523 143 0 143 0 -3 523 -2 522 -96 1
c-52 0 -99 3 -105 5 -5 3 -25 3 -44 0z"/>
<path d="M3240 4000 c0 -6 -4 -8 -10 -5 -7 4 -10 -172 -10 -520 l0 -526 226 1
c171 1 238 5 277 17 29 8 55 20 58 25 3 5 8 8 11 6 11 -8 78 58 101 101 79
145 29 339 -96 371 -30 8 -32 27 -3 34 31 8 86 53 86 72 0 8 4 14 9 14 13 0
25 68 23 131 -3 107 -58 189 -157 235 -69 32 -90 35 -245 40 -151 5 -141 5
-195 1 -22 -2 -48 1 -57 5 -12 6 -18 5 -18 -2z m349 -245 c69 -35 47 -140 -33
-161 -47 -11 -52 -3 -50 87 1 46 2 85 3 87 3 8 56 0 80 -13z m13 -396 c25 -14
47 -66 41 -99 -7 -40 -45 -72 -94 -77 l-44 -5 1 98 c1 55 2 100 3 102 2 6 73
-8 93 -19z"/>
<path d="M4040 4003 c0 -5 -12 -9 -27 -8 l-28 0 -1 -522 0 -523 248 0 248 0 0
124 0 124 -102 1 c-56 1 -104 3 -106 5 -1 2 -4 181 -5 397 l-2 394 -100 0
c-55 1 -106 4 -113 9 -6 4 -12 3 -12 -1z"/>
<path d="M4587 4003 c-4 -6 -22 -9 -42 -6 l-35 3 0 -525 0 -525 264 0 264 0
-2 123 -1 122 -120 5 -120 5 0 73 c0 39 2 73 5 73 3 1 49 2 103 3 61 1 100 5
105 13 4 6 7 62 6 125 l-1 113 -94 1 c-52 1 -101 2 -110 3 -12 1 -15 14 -15
69 l1 67 121 3 121 3 0 119 c-1 74 -5 121 -11 123 -6 3 -104 4 -219 3 -123 -1
-208 3 -210 9 -2 5 -6 5 -10 -2z"/>
<path d="M0 3473 l0 -523 139 0 c102 0 140 3 143 13 4 10 3 1011 -1 1028 0 3
-64 6 -141 6 l-140 0 0 -524z"/>
<path d="M1588 2916 c-1 -2 -28 -6 -58 -10 -81 -9 -105 -14 -173 -40 -159 -60
-265 -149 -349 -292 -54 -93 -95 -213 -104 -309 -3 -21 -7 -51 -9 -65 -6 -29
-6 -242 0 -280 2 -14 4 -31 4 -37 1 -13 19 -12 122 2 42 6 104 13 174 20 28 3
59 7 70 9 11 3 34 5 51 5 l31 1 -5 114 c-9 220 54 381 173 444 50 26 153 25
211 -2 27 -13 59 -33 72 -45 16 -16 24 -18 27 -9 3 7 4 112 2 233 l-2 220 -39
13 c-22 7 -69 15 -105 18 -36 3 -71 7 -78 9 -6 2 -13 2 -15 1z"/>
<path d="M4740 2912 c-195 -14 -325 -97 -412 -265 -36 -67 -70 -203 -66 -259
3 -49 -18 -45 183 -33 66 4 143 8 170 10 28 2 59 4 70 4 18 1 20 7 17 39 -3
31 2 42 27 66 26 25 40 30 84 30 69 1 118 -24 195 -100 l62 -62 0 244 0 243
-29 16 c-77 39 -226 73 -301 67z"/>
<path d="M340 2888 c-198 -61 -333 -263 -336 -504 -2 -112 14 -180 63 -263 30
-52 159 -182 224 -226 24 -17 50 -36 57 -42 17 -16 25 -16 87 0 36 10 101 13
227 10 101 -2 179 0 182 5 7 12 -20 103 -46 154 -27 52 -135 159 -229 227 -41
30 -87 70 -102 89 -57 73 -23 154 70 168 62 9 154 -37 222 -112 l51 -56 0 246
0 246 -42 19 c-24 11 -59 24 -78 30 -19 6 -49 15 -66 20 -57 17 -213 11 -284
-11z"/>
<path d="M2249 2882 c-9 -2 -28 -61 -58 -185 -24 -100 -52 -218 -63 -262 -11
-44 -20 -87 -22 -95 -1 -9 -5 -21 -10 -28 -4 -6 -5 -12 -3 -12 2 0 -10 -60
-28 -132 -18 -73 -30 -134 -26 -136 4 -1 52 9 107 23 54 15 108 28 119 30 96
21 171 39 177 44 6 6 15 50 23 111 11 89 18 137 21 150 1 8 3 28 3 44 2 61 19
9 25 -74 6 -88 13 -149 22 -188 5 -26 22 -26 129 -2 28 6 64 13 80 15 53 7
158 26 165 30 4 3 1 31 -6 62 -7 32 -15 69 -18 83 -11 56 -27 131 -51 245 -15
66 -28 132 -29 146 -2 14 -5 30 -8 35 -3 5 -9 28 -13 52 -4 23 -12 43 -18 43
-26 3 -504 4 -518 1z"/>
<path d="M3141 2880 c-8 -5 -9 -636 -1 -634 3 0 34 4 70 8 36 4 79 9 95 11 87
11 126 16 190 21 39 3 73 10 76 15 3 5 5 59 4 119 l-1 110 38 0 c88 0 155 -66
165 -163 l5 -53 62 3 c61 3 175 11 251 18 22 1 59 3 83 4 l42 1 -5 73 c-3 39
-10 88 -16 107 -21 68 -51 140 -60 140 -5 0 -9 6 -9 14 0 22 -94 103 -159 135
-33 17 -61 28 -61 25 0 -4 -6 -2 -12 3 -7 6 -31 14 -53 18 -22 5 -47 10 -55
11 -70 15 -630 27 -649 14z"/>
<path d="M4557 2234 c-2 -2 -141 -10 -285 -17 -9 0 -11 -13 -7 -46 17 -138
115 -278 280 -401 103 -77 129 -111 127 -166 -2 -49 -18 -73 -64 -94 -52 -23
-105 -19 -172 14 -50 24 -125 89 -145 123 -21 38 -26 -9 -25 -221 1 -124 -1
-226 -3 -226 -3 0 -206 409 -208 420 0 3 -20 45 -44 93 -23 49 -41 90 -39 91
1 1 20 11 41 21 85 44 173 163 192 260 14 71 16 135 3 130 -7 -2 -58 -6 -113
-9 -113 -6 -273 -18 -294 -21 -7 -1 -21 -22 -31 -47 -10 -26 -27 -60 -39 -76
-23 -33 -95 -66 -132 -60 -22 3 -24 7 -25 78 -2 95 0 90 -26 84 -13 -3 -48 -7
-78 -9 -76 -6 -149 -14 -185 -20 -38 -6 -104 -13 -131 -14 -20 -1 -20 -4 -20
-498 l1 -498 210 0 c116 0 215 1 221 2 7 3 10 109 9 336 -1 182 2 323 6 312
12 -31 123 -339 159 -440 17 -49 35 -98 40 -107 6 -10 10 -24 10 -32 0 -7 7
-27 15 -42 l15 -29 235 0 c195 0 234 2 230 14 -4 10 1 12 17 7 161 -42 308
-58 383 -42 17 3 41 8 54 11 107 20 260 146 316 260 63 130 78 319 36 440 -40
112 -101 184 -259 301 -44 32 -90 73 -103 91 -23 31 -26 32 -97 30 -41 -1 -74
-3 -75 -3z"/>
<path d="M2900 2087 c-3 -3 -61 -14 -130 -26 -69 -12 -136 -24 -150 -27 -14
-3 -32 -7 -40 -8 -9 -1 -21 -6 -29 -10 -14 -9 -13 -13 14 -216 16 -119 16
-118 -21 -122 -19 -2 -34 -1 -34 2 0 3 -25 4 -55 2 l-56 -3 6 48 c3 26 12 91
21 143 21 129 21 125 6 122 -7 -1 -29 -5 -50 -8 -20 -3 -98 -21 -172 -40 -74
-19 -144 -36 -155 -38 -17 -2 -25 -23 -52 -127 -18 -68 -35 -137 -37 -154 -3
-16 -17 -75 -31 -130 -14 -55 -27 -109 -29 -120 -2 -11 -9 -40 -16 -65 -7 -25
-13 -52 -15 -60 -2 -8 -8 -35 -15 -59 -6 -24 -9 -48 -7 -55 3 -8 67 -11 222
-11 241 1 230 -2 239 71 2 21 5 39 6 39 1 0 3 9 4 20 2 11 6 34 10 50 l7 31
137 -2 c168 -2 158 0 158 -21 1 -10 3 -34 7 -53 3 -19 9 -55 12 -80 4 -25 9
-47 11 -50 7 -6 445 -6 449 1 2 3 -5 48 -16 100 -11 52 -22 105 -25 119 -3 14
-7 33 -10 42 -3 10 -7 29 -10 43 -10 58 -13 73 -28 136 -8 37 -17 78 -20 90
-2 13 -11 58 -20 99 -8 41 -17 86 -20 100 -3 14 -12 52 -20 85 -9 33 -15 72
-16 86 0 25 -21 64 -30 56z"/>
<path d="M1340 1797 c-3 -3 -34 -8 -70 -11 -36 -4 -76 -8 -90 -11 -25 -4 -91
-11 -180 -21 -25 -2 -54 -6 -65 -8 -11 -3 -23 -5 -26 -5 -27 -3 75 -331 103
-331 5 0 8 -5 8 -11 0 -15 48 -77 99 -128 65 -64 173 -129 246 -148 116 -29
257 -33 335 -8 10 3 28 8 40 10 35 7 80 29 81 40 3 26 20 318 24 392 2 55 0
56 -41 20 -12 -10 -25 -18 -29 -17 -4 1 -11 -2 -14 -7 -15 -22 -78 -41 -139
-41 -134 0 -209 64 -256 220 -12 38 -24 67 -26 65z"/>
<path d="M427 1724 c-27 -7 -51 -15 -54 -18 -3 -3 4 -17 16 -32 25 -32 28 -94
5 -129 -20 -30 -97 -56 -144 -49 -55 9 -128 54 -189 115 l-56 56 0 -248 c0
-150 4 -252 10 -257 9 -8 91 -34 97 -32 2 1 15 -3 30 -9 55 -21 242 -32 267
-16 7 4 15 5 18 2 7 -7 103 21 131 39 12 8 22 12 22 9 0 -13 95 63 137 110 61
68 104 156 130 265 7 30 9 180 3 190 -10 17 -364 20 -423 4z"/>
</g>
</svg>
